<svg width="388" height="399" viewBox="0 0 388 399" fill="none" xmlns="http://www.w3.org/2000/svg">
<path d="M61.5 90.5C49.5 89.7 36.5 95.5 31.5 98.5L15.5 115L6.5 133.5L3.5 152L6.5 176.5L20.5 195.5L45.5 210L65.5 215C71.3333 218.5 85.2 229.9 94 247.5C102.8 265.1 100.333 273.5 98 275.5C98 275.5 91 300.5 87.5 308.5C84 316.5 85 340.5 85 340.5C85 340.5 89.5 359 95.5 367.5C101.5 376 109.5 385.5 113.5 387.5C117.5 389.5 124 393.5 130 396C136 398.5 153.5 398 153.5 398C167.5 394.167 197.4 383.8 205 373C216.6 361.8 218.833 357 218.5 357C220.224 350.572 224.5 340.5 224.5 340.5C224.5 340.5 227.102 331.625 227.5 325C228.951 318.715 226.24 313.424 224.5 305.5C224.5 305.5 222.806 291.211 216.5 284.5L202 272L175 259.5L141 250.5L122 225.5L114 193.5C114 186.5 130.5 176.5 126 144.5C127 132.5 121 122 112 112C104.8 104 97.3333 98.6667 94.5 97C88.5 95.1667 73.5 91.3 61.5 90.5Z" fill="black"/>
<path d="M46.5 255C45.1926 251.475 44.236 249.543 40.5 246.5C38.8378 245.083 37.801 244.284 35 242.831C32.1585 242.14 25.4912 241.802 25.5 242C25.5088 242.198 16.8429 242.988 16.5 244C13.4846 244.97 12.1267 245.518 10 246.5C7.61843 248.762 5.18573 252.448 5.18573 252.448C5.18573 252.448 2.56294 257.407 1.50002 262.5C0.52197 266.002 0.206097 268.108 1.50002 273C2.75639 277.478 3.87682 279.919 7.50002 284C8.94732 286.875 10.8274 288.297 16.5 290.413C19.6804 290.685 21.7443 290.716 26.2714 290.413C31.9267 290.377 35.0602 289.945 40.5 287.5L45 281.5C47.3427 278.523 48.2662 276.69 48.9 273C49.3469 270.043 49.3573 268.292 48.9 265C47.9343 261.794 48.367 258.46 46.5 255Z" fill="black"/>
<path d="M324.333 2.99999C316.333 2.99999 297.333 -1.49999 278.333 2.99999C259.333 7.49997 252.333 15 252.333 15L234.833 32C234.833 32 220.833 51.5 218.333 58C215.833 64.5 218.333 84 218.333 84C218.333 84 215.833 102.5 218.333 118.5C220.833 134.5 215.833 142 215.833 142C215.833 142 211.833 148 199.333 155C186.833 162 182.833 158.5 182.833 158.5C182.833 158.5 171.833 158.5 162.333 161.5C152.833 164.5 148.333 169.5 145.333 179C142.333 188.5 145.333 203 145.333 203C145.333 203 147.333 218 157.833 222C168.333 226 189.833 222 189.833 222C189.833 222 200.833 216 206.333 209.5C211.833 203 205.333 193.5 211.833 183.5C218.333 173.5 223.833 165 223.833 165C223.833 165 234.833 158.5 240.833 158.5C246.833 158.5 255.833 165 260.833 165C265.833 165 287.333 170.5 305.833 171C324.333 171.5 331.333 168.5 337.833 165C344.333 161.5 355.833 151.5 355.833 151.5C376.167 132.5 405.133 79.2 370.333 32C355.833 12.5 332.333 2.99999 324.333 2.99999Z" fill="black"/>
<path d="M61.5 90.5C49.5 89.7 36.5 95.5 31.5 98.5L15.5 115L6.5 133.5L3.5 152L6.5 176.5L20.5 195.5L45.5 210L65.5 215C71.3333 218.5 85.2 229.9 94 247.5C102.8 265.1 100.333 273.5 98 275.5C98 275.5 91 300.5 87.5 308.5C84 316.5 85 340.5 85 340.5C85 340.5 89.5 359 95.5 367.5C101.5 376 109.5 385.5 113.5 387.5C117.5 389.5 124 393.5 130 396C136 398.5 153.5 398 153.5 398C167.5 394.167 197.4 383.8 205 373C216.6 361.8 218.833 357 218.5 357C220.224 350.572 224.5 340.5 224.5 340.5C224.5 340.5 227.102 331.625 227.5 325C228.951 318.715 226.24 313.424 224.5 305.5C224.5 305.5 222.806 291.211 216.5 284.5L202 272L175 259.5L141 250.5L122 225.5L114 193.5C114 186.5 130.5 176.5 126 144.5C127 132.5 121 122 112 112C104.8 104 97.3333 98.6667 94.5 97C88.5 95.1667 73.5 91.3 61.5 90.5Z" stroke="black"/>
<path d="M46.5 255C45.1926 251.475 44.236 249.543 40.5 246.5C38.8378 245.083 37.801 244.284 35 242.831C32.1585 242.14 25.4912 241.802 25.5 242C25.5088 242.198 16.8429 242.988 16.5 244C13.4846 244.97 12.1267 245.518 10 246.5C7.61843 248.762 5.18573 252.448 5.18573 252.448C5.18573 252.448 2.56294 257.407 1.50002 262.5C0.52197 266.002 0.206097 268.108 1.50002 273C2.75639 277.478 3.87682 279.919 7.50002 284C8.94732 286.875 10.8274 288.297 16.5 290.413C19.6804 290.685 21.7443 290.716 26.2714 290.413C31.9267 290.377 35.0602 289.945 40.5 287.5L45 281.5C47.3427 278.523 48.2662 276.69 48.9 273C49.3469 270.043 49.3573 268.292 48.9 265C47.9343 261.794 48.367 258.46 46.5 255Z" stroke="black"/>
<path d="M324.333 2.99999C316.333 2.99999 297.333 -1.49999 278.333 2.99999C259.333 7.49997 252.333 15 252.333 15L234.833 32C234.833 32 220.833 51.5 218.333 58C215.833 64.5 218.333 84 218.333 84C218.333 84 215.833 102.5 218.333 118.5C220.833 134.5 215.833 142 215.833 142C215.833 142 211.833 148 199.333 155C186.833 162 182.833 158.5 182.833 158.5C182.833 158.5 171.833 158.5 162.333 161.5C152.833 164.5 148.333 169.5 145.333 179C142.333 188.5 145.333 203 145.333 203C145.333 203 147.333 218 157.833 222C168.333 226 189.833 222 189.833 222C189.833 222 200.833 216 206.333 209.5C211.833 203 205.333 193.5 211.833 183.5C218.333 173.5 223.833 165 223.833 165C223.833 165 234.833 158.5 240.833 158.5C246.833 158.5 255.833 165 260.833 165C265.833 165 287.333 170.5 305.833 171C324.333 171.5 331.333 168.5 337.833 165C344.333 161.5 355.833 151.5 355.833 151.5C376.167 132.5 405.133 79.2 370.333 32C355.833 12.5 332.333 2.99999 324.333 2.99999Z" stroke="black"/>
</svg>
